<svg
  width="246.2255424197394"
  height="279.1796875"
  viewBox="0 0 356.9185139874773 404.6875"
  class="css-1j8o68f"
>
  <defs id="SvgjsDefs2178"></defs>
  <g
    id="SvgjsG2179"
    featurekey="rootContainer"
    transform="matrix(7.195935789643904,0,0,7.195935789643904,0.00005294804203327348,0.030032566386700623)"
    fill="#6f61ee"
  >
    <path
      xmlns="http://www.w3.org/2000/svg"
      d="M23.11 55.78L1.69 43.41A3.39 3.39 0 0 1 0 40.48V15.75a3.39 3.39 0 0 1 1.69-2.94L23.11.45a3.39 3.39 0 0 1 3.39 0l21.41 12.37a3.39 3.39 0 0 1 1.69 2.94v24.72a3.39 3.39 0 0 1-1.69 2.94L26.5 55.78a3.39 3.39 0 0 1-3.39 0z"
    ></path>
  </g>
  <g
    id="SvgjsG2180"
    featurekey="symbolFeature-0"
    transform="matrix(0.03035862250477978,0,0,-0.03035862250477978,158.9997258223008,113.07641676947802)"
    fill="#ffffff"
  >
    <g xmlns="http://www.w3.org/2000/svg">
      <polygon
        points="1152.1,608.1 1152.1,711.9 1144.1,736.7 1144.1,583.3  "
      ></polygon>
      <polygon
        points="1152.1,419.2 1152.1,500.1 1144.1,489 1144.1,413.3  "
      ></polygon>
      <polygon
        points="1152.1,513.8 1152.1,582 1144.1,557.3 1144.1,502.7  "
      ></polygon>
      <path
        d="M302.4,1152.2h-65.5c-38.1,0-69.1-31-69.1-69.1v-65.5l8.1,2.6v62.9c0,33.6,27.4,61,61,61h62.9L302.4,1152.2z"
      ></path>
      <polygon
        points="1011.7,1144.1 1009.1,1152.2 910.8,1152.2 916.6,1144.1  "
      ></polygon>
      <polygon
        points="175.9,762.7 175.9,817.3 167.8,806.2 167.8,737.9  "
      ></polygon>
      <polygon
        points="175.9,831 175.9,906.7 167.8,900.8 167.8,819.9  "
      ></polygon>
      <polygon
        points="736.7,1144.1 711.9,1152.2 608.1,1152.2 583.4,1144.1  "
      ></polygon>
      <path
        d="M1152.1,1017.6v65.5c0,38.1-31,69.1-69.1,69.1h-65.5l2.6-8h62.9c33.7,0,61-27.4,61-61v-62.9L1152.1,1017.6z"
      ></path>
      <polygon
        points="500.1,1152.2 419.2,1152.2 413.3,1144.1 489,1144.1  "
      ></polygon>
      <polygon
        points="1152.1,738 1152.1,806.2 1144.1,817.3 1144.1,762.7  "
      ></polygon>
      <polygon
        points="736.7,175.9 583.3,175.9 608.1,167.9 711.9,167.9  "
      ></polygon>
      <polygon
        points="1152.1,310.9 1152.1,409.2 1144.1,403.4 1144.1,308.3  "
      ></polygon>
      <polygon
        points="1011.7,175.9 916.6,175.9 910.8,167.9 1009.1,167.9  "
      ></polygon>
      <polygon
        points="906.7,1144.1 900.8,1152.2 819.9,1152.2 831,1144.1  "
      ></polygon>
      <polygon
        points="175.9,583.4 175.9,736.7 167.8,711.9 167.8,608.1  "
      ></polygon>
      <polygon
        points="1152.1,819.9 1152.1,900.8 1144.1,906.7 1144.1,831  "
      ></polygon>
      <polygon
        points="175.9,413.4 175.9,489 167.8,500.1 167.8,419.2  "
      ></polygon>
      <polygon
        points="175.9,502.7 175.9,557.3 167.8,582.1 167.8,513.8  "
      ></polygon>
      <polygon
        points="817.3,1144.1 806.2,1152.2 737.9,1152.2 762.7,1144.1  "
      ></polygon>
      <polygon
        points="409.2,1152.2 310.9,1152.2 308.3,1144.1 403.4,1144.1  "
      ></polygon>
      <polygon
        points="175.9,916.6 175.9,1011.7 167.8,1009.1 167.8,910.8  "
      ></polygon>
      <polygon
        points="582.1,1152.2 513.8,1152.2 502.7,1144.1 557.3,1144.1  "
      ></polygon>
      <polygon
        points="1152.1,910.8 1152.1,1009.1 1144.1,1011.7 1144.1,916.6  "
      ></polygon>
      <path
        d="M1152.1,236.9v65.5l-8-2.6v-62.9c0-33.6-27.4-61-61-61h-62.9l-2.6-8h65.5C1121.2,167.9,1152.1,198.9,1152.1,236.9z"
      ></path>
      <polygon
        points="582,167.9 557.3,175.9 502.7,175.9 513.8,167.9  "
      ></polygon>
      <path
        d="M302.4,167.9l-2.6,8h-62.9c-33.7,0-61,27.4-61,61v62.9l-8.1,2.6v-65.5c0-38.1,31-69.1,69.1-69.1H302.4z"
      ></path>
      <polygon
        points="500.1,167.9 489,175.9 413.3,175.9 419.2,167.9  "
      ></polygon>
      <polygon
        points="409.2,167.9 403.4,175.9 308.3,175.9 310.9,167.9  "
      ></polygon>
      <polygon
        points="906.7,175.9 831,175.9 819.9,167.9 900.8,167.9  "
      ></polygon>
      <polygon
        points="817.3,175.9 762.7,175.9 738,167.9 806.2,167.9  "
      ></polygon>
      <polygon
        points="175.9,308.3 175.9,403.4 167.8,409.3 167.8,310.9  "
      ></polygon>
      <polygon points="146.8,647 142.5,660 117.5,583.1 123.4,575  "></polygon>
      <polygon
        points="275.8,1044.2 266.4,1041.1 241.4,964.2 252.4,972.2  "
      ></polygon>
      <polygon points="745,123.4 673,146.8 660,142.5 737,117.5  "></polygon>
      <polygon
        points="660,1177.5 583.1,1202.5 575,1196.6 647,1173.3  "
      ></polygon>
      <polygon
        points="355.8,241.4 347.8,252.4 275.8,275.8 278.9,266.4  "
      ></polygon>
      <polygon
        points="223.3,882.6 208,861.5 175.9,762.7 175.9,736.7  "
      ></polygon>
      <polygon
        points="882.5,1096.7 861.5,1112 762.7,1144.1 736.7,1144.1  "
      ></polygon>
      <polygon
        points="1078.7,355.8 1067.6,347.8 1044.2,275.8 1053.7,278.9  "
      ></polygon>
      <polygon
        points="1104,433.8 1088.7,412.7 1071.8,360.8 1082.9,368.9  "
      ></polygon>
      <polygon
        points="583.3,175.9 437.5,223.3 458.6,208 557.3,175.9  "
      ></polygon>
      <polygon points="660,151 608.1,167.9 582,167.9 647,146.8  "></polygon>
      <polygon
        points="1144.1,557.3 1144.1,583.3 1096.7,437.5 1112,458.6  "
      ></polygon>
      <polygon points="1173.3,647 1169,660 1152.1,608.1 1152.1,582  "></polygon>
      <polygon
        points="737.9,1152.2 673,1173.3 660,1169 711.9,1152.2  "
      ></polygon>
      <polygon
        points="959.2,1071.8 951.1,1082.9 886.2,1104 907.3,1088.7  "
      ></polygon>
      <polygon
        points="433.8,216 412.7,231.3 360.8,248.2 368.8,237.1  "
      ></polygon>
      <polygon points="167.8,711.9 167.8,737.9 146.8,673 151,660  "></polygon>
      <polygon
        points="248.2,959.2 237.1,951.1 216,886.2 231.3,907.3  "
      ></polygon>
      <polygon
        points="1050.6,269.4 1041.1,266.4 1011.7,175.9 1020.2,175.9  "
      ></polygon>
      <polygon
        points="1144.1,1011.7 1144.1,1020.2 1050.6,1050.6 1053.7,1041.1  "
      ></polygon>
      <polygon
        points="1236,840 1229.1,844.9 1199.7,754.5 1205.6,746.4  "
      ></polygon>
      <path
        d="M1017.6,167.9h-8.5L989.7,108c-5-15.5-15.8-28.1-30.3-35.5s-31.1-8.7-46.6-3.7L853,88.3l-5-6.9l62.3-20.2   c17.5-5.7,36.3-4.2,52.7,4.2c16.4,8.4,28.6,22.6,34.3,40.2L1017.6,167.9z"
      ></path>
      <polygon
        points="573.6,1205.6 480.1,1236 475.1,1229.1 565.6,1199.7  "
      ></polygon>
      <polygon
        points="844.9,90.9 754.5,120.3 746.4,114.5 839.9,84.1  "
      ></polygon>
      <polygon
        points="269.4,269.4 266.4,278.9 175.9,308.3 175.9,299.8  "
      ></polygon>
      <polygon
        points="308.3,1144.1 299.8,1144.1 269.4,1050.6 278.9,1053.7  "
      ></polygon>
      <polygon points="1202.5,737 1196.6,745 1173.3,673 1177.5,660  "></polygon>
      <polygon
        points="120.3,565.5 114.4,573.6 84.1,480.1 90.9,475.1  "
      ></polygon>
      <path
        d="M167.8,302.4v8.5L108,330.3c-15.5,5-28.1,15.8-35.5,30.3c-7.4,14.5-8.7,31.1-3.7,46.6l19.4,59.8l-6.9,5l-20.2-62.3   c-5.7-17.5-4.2-36.3,4.2-52.7c8.4-16.4,22.6-28.6,40.2-34.3L167.8,302.4z"
      ></path>
      <path
        d="M1254.7,963c-8.4,16.4-22.7,28.6-40.2,34.3l-62.3,20.2v-8.5l59.8-19.4c15.5-5,28.1-15.8,35.5-30.3   c7.4-14.5,8.7-31.1,3.7-46.6l-19.4-59.8l6.8-5l20.2,62.3C1264.5,927.9,1263,946.6,1254.7,963z"
      ></path>
      <polygon
        points="1044.2,1044.2 1041.1,1053.7 964.2,1078.7 972.2,1067.6  "
      ></polygon>
      <path
        d="M472,1238.6l-62.3,20.2c-7.1,2.3-14.2,3.4-21.3,3.4c-29.1,0-56.3-18.6-65.7-47.7l-20.2-62.3h8.5l19.4,59.8   c10.4,32,44.9,49.6,76.9,39.2l59.8-19.4L472,1238.6z"
      ></path>
      <polygon
        points="1144.1,1011.7 1144.1,1020.2 1152.2,1017.6 1152.2,1009.1  "
      ></polygon>
      <polygon
        points="167.9,711.9 167.9,737.9 175.9,762.7 175.9,736.7  "
      ></polygon>
      <polygon
        points="608.1,167.9 582,167.9 557.3,175.9 583.3,175.9  "
      ></polygon>
      <polygon
        points="711.9,1152.2 737.9,1152.2 762.7,1144.1 736.7,1144.1  "
      ></polygon>
      <polygon
        points="1011.7,175.9 1020.2,175.9 1017.6,167.9 1009.1,167.9  "
      ></polygon>
      <polygon
        points="175.9,308.3 175.9,299.8 167.9,302.4 167.9,310.9  "
      ></polygon>
      <polygon
        points="308.3,1144.1 299.8,1144.1 302.4,1152.2 310.9,1152.2  "
      ></polygon>
      <polygon
        points="1152.2,608.1 1152.2,582 1144.1,557.3 1144.1,583.3  "
      ></polygon>
      <path
        d="M848,81.5l-8,2.6l-37-50.9C791,16.8,772.4,8.1,753.5,8.1c-12.4,0-25,3.8-35.8,11.6l-50.9,37l-6.9-5l53-38.5   c30.8-22.4,74.1-15.5,96.5,15.3L848,81.5z"
      ></path>
      <polygon
        points="307.6,307.7 292.3,328.8 248.2,360.8 252.4,347.8  "
      ></polygon>
      <polygon points="502.7,175.9 458.6,208 433.8,216 489,175.9  "></polygon>
      <polygon points="910.8,167.9 900.8,167.9 844.9,90.9 853,88.3  "></polygon>
      <polygon
        points="575,123.4 513.8,167.9 500.1,167.9 565.6,120.3  "
      ></polygon>
      <polygon
        points="886.2,1104 831,1144.1 817.3,1144.1 861.5,1112  "
      ></polygon>
      <polygon
        points="1071.8,959.2 1067.6,972.2 1012.3,1012.4 1027.6,991.3  "
      ></polygon>
      <polygon points="660,61.6 583.1,117.5 573.6,114.5 653.2,56.7  "></polygon>
      <path
        d="M19.7,602.3l37,50.9l-5,6.8l-38.5-53c-22.4-30.8-15.5-74.1,15.3-96.5l53-38.5l2.6,8l-50.9,37C6,536.8-0.1,575.1,19.7,602.3   z"
      ></path>
      <polygon
        points="1144.1,489 1144.1,502.7 1112,458.6 1104,433.8  "
      ></polygon>
      <polygon
        points="1006.6,1006.6 991.3,1027.7 907.3,1088.7 882.5,1096.7  "
      ></polygon>
      <polygon
        points="1263.4,653.2 1258.4,660 1202.5,583.1 1205.6,573.6  "
      ></polygon>
      <polygon
        points="964.2,241.4 951.1,237.1 906.7,175.9 916.6,175.9  "
      ></polygon>
      <polygon
        points="1199.7,565.6 1196.6,575 1152.1,513.8 1152.1,500.1  "
      ></polygon>
      <polygon
        points="1096.7,437.5 1006.6,313.4 1027.6,328.7 1088.7,412.7  "
      ></polygon>
      <path
        d="M660,1268.3l-53,38.5c-12.2,8.9-26.4,13.2-40.5,13.2c-21.4,0-42.5-9.9-56-28.4l-38.5-53l8.1-2.6l37,50.9   c19.8,27.2,58,33.3,85.2,13.5l50.9-37L660,1268.3z"
      ></path>
      <polygon
        points="1012.3,307.6 991.3,292.3 959.2,248.2 972.2,252.4  "
      ></polygon>
      <polygon
        points="819.9,1152.2 754.5,1199.7 745,1196.6 806.2,1152.2  "
      ></polygon>
      <path
        d="M1319.2,764.4c-2.9,18.2-12.7,34.2-27.6,45.1l-53,38.5l-2.6-8.1l50.9-37c13.2-9.6,21.9-23.7,24.4-39.8   c2.5-16.1-1.3-32.2-10.9-45.4l-37-50.9l5-6.8l38.5,53C1317.7,727.9,1322.1,746.2,1319.2,764.4z"
      ></path>
      <polygon
        points="437.5,223.3 313.4,313.5 328.7,292.4 412.7,231.3  "
      ></polygon>
      <polygon
        points="1144.1,906.7 1144.1,916.6 1078.7,964.2 1082.9,951.2  "
      ></polygon>
      <polygon
        points="413.3,1144.1 403.4,1144.1 355.8,1078.7 368.8,1082.9  "
      ></polygon>
      <polygon
        points="167.8,806.2 167.8,819.9 120.3,754.5 123.4,745  "
      ></polygon>
      <polygon
        points="746.4,1205.6 666.9,1263.4 660,1258.4 737,1202.5  "
      ></polygon>
      <polygon points="216,886.2 175.9,831 175.9,817.3 208,861.5  "></polygon>
      <polygon
        points="1231.7,853 1152.1,910.8 1152.1,900.8 1229.1,844.9  "
      ></polygon>
      <polygon
        points="241.4,355.9 237.1,368.9 175.9,413.4 175.9,403.4  "
      ></polygon>
      <polygon points="117.5,737 114.4,746.4 56.6,666.9 61.6,660  "></polygon>
      <polygon
        points="313.4,1006.6 292.3,991.3 231.3,907.3 223.3,882.6  "
      ></polygon>
      <polygon
        points="360.8,1071.8 347.8,1067.6 307.6,1012.3 328.7,1027.6  "
      ></polygon>
      <polygon
        points="167.8,409.3 167.8,419.2 90.9,475.1 88.3,467.1  "
      ></polygon>
      <polygon
        points="475.1,1229.1 467,1231.7 409.2,1152.2 419.2,1152.2  "
      ></polygon>
      <polygon
        points="1144.1,502.7 1152.2,513.8 1152.2,500.1 1144.1,489  "
      ></polygon>
      <polygon
        points="403.4,1144.1 409.2,1152.2 419.2,1152.2 413.3,1144.1  "
      ></polygon>
      <polygon
        points="175.9,817.3 167.9,806.2 167.9,819.9 175.9,831  "
      ></polygon>
      <polygon
        points="502.7,175.9 513.8,167.9 500.1,167.9 489,175.9  "
      ></polygon>
      <polygon
        points="175.9,403.4 167.9,409.3 167.9,419.2 175.9,413.4  "
      ></polygon>
      <polygon
        points="817.3,1144.1 806.2,1152.2 819.9,1152.2 831,1144.1  "
      ></polygon>
      <polygon
        points="1144.1,916.6 1152.2,910.8 1152.2,900.8 1144.1,906.7  "
      ></polygon>
      <polygon
        points="916.6,175.9 910.8,167.9 900.8,167.9 906.7,175.9  "
      ></polygon>
      <polygon points="1229.1,844.9 1231.7,853 1238.6,848 1236,840  "></polygon>
      <polygon points="844.9,90.9 853,88.3 848,81.5 839.9,84.1  "></polygon>
      <polygon
        points="475.1,1229.1 467,1231.7 472,1238.6 480.1,1236  "
      ></polygon>
      <polygon points="208,861.5 216,886.3 231.3,907.3 223.3,882.6  "></polygon>
      <polygon points="90.9,475.1 88.3,467.1 81.5,472 84.1,480.1  "></polygon>
      <polygon
        points="861.5,1112 886.2,1104 907.3,1088.7 882.5,1096.7  "
      ></polygon>
      <polygon points="458.6,208 433.8,216 412.7,231.3 437.5,223.3  "></polygon>
      <polygon
        points="1112,458.6 1104,433.8 1088.7,412.8 1096.7,437.5  "
      ></polygon>
      <polygon points="167.8,900.8 167.8,910.8 88.3,853 90.9,844.9  "></polygon>
      <polygon
        points="437.5,1096.7 412.7,1088.7 328.7,1027.6 313.4,1006.6  "
      ></polygon>
      <polygon points="216,433.8 208,458.5 175.9,502.7 175.9,489  "></polygon>
      <polygon
        points="1006.6,313.4 882.5,223.3 907.3,231.3 991.3,292.3  "
      ></polygon>
      <polygon
        points="1263.4,666.9 1205.6,746.4 1202.5,737 1258.4,660  "
      ></polygon>
      <polygon points="117.5,583.1 61.6,660 56.6,653.2 114.4,573.6  "></polygon>
      <path
        d="M1306.8,607l-38.5,53l-5-6.8l37-50.9c9.6-13.2,13.4-29.3,10.9-45.4c-2.6-16.1-11.2-30.2-24.4-39.8l-50.9-37l2.6-8l53,38.5   c14.9,10.8,24.7,26.8,27.6,45.1C1322.1,573.8,1317.7,592.1,1306.8,607z"
      ></path>
      <polygon
        points="502.7,1144.1 489,1144.1 433.8,1104 458.6,1112  "
      ></polygon>
      <polygon
        points="964.2,1078.7 916.6,1144.1 906.7,1144.1 951.1,1082.9  "
      ></polygon>
      <polygon
        points="910.8,1152.2 853,1231.7 844.9,1229.1 900.8,1152.2  "
      ></polygon>
      <polygon
        points="307.6,1012.3 252.4,972.2 248.2,959.2 292.3,991.3  "
      ></polygon>
      <polygon
        points="660,1258.4 653.2,1263.4 573.6,1205.6 583.1,1202.5  "
      ></polygon>
      <polygon
        points="241.4,964.2 175.9,916.6 175.9,906.7 237.1,951.1  "
      ></polygon>
      <polygon
        points="313.4,313.5 223.3,437.5 231.3,412.7 292.3,328.8  "
      ></polygon>
      <polygon
        points="167.8,500.1 167.8,513.8 123.4,575 120.3,565.5  "
      ></polygon>
      <polygon points="746.4,114.5 737,117.5 660,61.6 666.9,56.7  "></polygon>
      <path
        d="M660,51.7l-6.8,5l-50.9-37C575.1-0.1,536.8,5.9,517,33.2l-37,50.9l-8.1-2.6l38.5-53C532.9-2.4,576.2-9.2,607,13.2L660,51.7   z"
      ></path>
      <polygon
        points="1231.7,467 1229.1,475.1 1152.1,419.2 1152.1,409.2  "
      ></polygon>
      <polygon
        points="819.9,167.9 806.2,167.9 745,123.4 754.5,120.3  "
      ></polygon>
      <polygon
        points="575,1196.6 565.6,1199.7 500.1,1152.2 513.8,1152.2  "
      ></polygon>
      <polygon
        points="1096.7,882.5 1088.7,907.3 1027.6,991.3 1006.6,1006.6  "
      ></polygon>
      <path
        d="M84.1,839.9l-2.6,8.1l-53-38.5C-2.4,787.1-9.2,743.8,13.2,713l38.5-53l5,6.8l-37,50.9C-0.1,745,6,783.2,33.2,803   L84.1,839.9z"
      ></path>
      <polygon
        points="1144.1,403.4 1144.1,413.3 1082.9,368.9 1078.7,355.8  "
      ></polygon>
      <polygon points="886.2,216 861.5,208 817.3,175.9 831,175.9  "></polygon>
      <polygon
        points="1144.1,817.3 1144.1,831 1104,886.2 1112,861.4  "
      ></polygon>
      <polygon points="475.1,90.9 419.2,167.9 409.2,167.9 467,88.3  "></polygon>
      <polygon
        points="360.8,248.2 328.7,292.4 307.6,307.7 347.8,252.4  "
      ></polygon>
      <polygon
        points="1012.3,1012.4 972.2,1067.6 959.2,1071.8 991.3,1027.7  "
      ></polygon>
      <polygon
        points="1071.8,360.8 1027.6,328.7 1012.3,307.6 1067.6,347.8  "
      ></polygon>
      <polygon
        points="413.3,175.9 368.8,237.1 355.8,241.4 403.4,175.9  "
      ></polygon>
      <polygon
        points="1199.7,754.5 1152.1,819.9 1152.1,806.2 1196.6,745  "
      ></polygon>
      <path
        d="M848,1238.6l-38.5,53c-10.8,14.9-26.8,24.7-45.1,27.6c-3.7,0.6-7.3,0.9-11,0.9c-14.5,0-28.5-4.5-40.5-13.2l-53-38.5l6.9-5   l50.9,37c13.2,9.6,29.3,13.5,45.4,10.9c16.1-2.6,30.2-11.2,39.8-24.4l37-50.9L848,1238.6z"
      ></path>
      <polygon
        points="900.8,1152.2 910.8,1152.2 916.6,1144.1 906.7,1144.1  "
      ></polygon>
      <polygon
        points="502.7,1144.1 489,1144.1 500.1,1152.2 513.8,1152.2  "
      ></polygon>
      <polygon
        points="817.3,175.9 831,175.9 819.9,167.9 806.3,167.9  "
      ></polygon>
      <polygon
        points="175.9,502.7 175.9,489 167.9,500.1 167.9,513.8  "
      ></polygon>
      <polygon
        points="1144.1,817.3 1144.1,831 1152.2,819.9 1152.2,806.2  "
      ></polygon>
      <polygon
        points="1152.2,419.2 1152.2,409.2 1144.1,403.4 1144.1,413.3  "
      ></polygon>
      <polygon
        points="167.9,900.8 167.9,910.8 175.9,916.6 175.9,906.7  "
      ></polygon>
      <polygon
        points="419.2,167.9 409.2,167.9 403.4,175.9 413.3,175.9  "
      ></polygon>
      <polygon
        points="360.8,248.2 368.8,237.1 355.8,241.4 347.8,252.4  "
      ></polygon>
      <polygon
        points="248.2,959.2 237.1,951.2 241.4,964.2 252.4,972.2  "
      ></polygon>
      <polygon
        points="959.2,1071.8 951.1,1082.9 964.2,1078.7 972.2,1067.6  "
      ></polygon>
      <polygon points="754.5,120.3 746.4,114.5 737,117.5 745,123.4  "></polygon>
      <polygon
        points="1071.8,360.8 1082.9,368.9 1078.7,355.8 1067.6,347.8  "
      ></polygon>
      <polygon
        points="565.6,1199.7 573.6,1205.6 583.1,1202.5 575,1196.6  "
      ></polygon>
      <polygon
        points="120.3,565.6 114.5,573.6 117.5,583.1 123.4,575  "
      ></polygon>
      <polygon
        points="1199.7,754.5 1205.6,746.4 1202.5,737 1196.6,745  "
      ></polygon>
      <polygon
        points="328.7,292.4 307.6,307.7 292.3,328.8 313.4,313.5  "
      ></polygon>
      <polygon
        points="660,1258.4 653.2,1263.4 660,1268.3 666.9,1263.4  "
      ></polygon>
      <polygon points="61.6,660 56.6,653.2 51.7,660 56.6,666.9  "></polygon>
      <polygon points="660,61.6 666.9,56.7 660,51.7 653.2,56.7  "></polygon>
      <polygon
        points="292.3,991.3 307.6,1012.3 328.7,1027.6 313.4,1006.6  "
      ></polygon>
      <polygon
        points="1258.4,660 1263.4,666.9 1268.3,660 1263.4,653.2  "
      ></polygon>
      <polygon
        points="991.3,1027.7 1012.3,1012.4 1027.6,991.3 1006.6,1006.6  "
      ></polygon>
      <polygon
        points="1027.6,328.7 1012.3,307.6 991.3,292.3 1006.6,313.4  "
      ></polygon>
      <polygon points="146.8,673 123.4,745 117.5,737 142.5,660  "></polygon>
      <polygon
        points="223.3,437.5 175.9,583.4 175.9,557.3 208,458.5  "
      ></polygon>
      <path
        d="M1017.6,1152.2l-20.2,62.3c-9.5,29.2-36.6,47.7-65.7,47.7c-7.1,0-14.2-1.1-21.3-3.4l-62.3-20.2l5-6.8l59.8,19.4   c6.2,2,12.6,3,18.8,3c25.7,0,49.7-16.4,58.1-42.2l19.4-59.8H1017.6z"
      ></path>
      <path
        d="M167.8,1009.1v8.5l-62.3-20.2C88,991.6,73.7,979.4,65.4,963c-8.4-16.4-9.9-35.2-4.2-52.7L81.4,848l6.9,5l-19.4,59.8   c-5,15.5-3.7,32,3.7,46.6c7.4,14.5,20,25.3,35.5,30.3L167.8,1009.1z"
      ></path>
      <polygon
        points="1144.1,736.7 1144.1,762.7 1112,861.4 1096.7,882.5  "
      ></polygon>
      <polygon
        points="1236,480.1 1205.6,573.6 1199.7,565.6 1229.1,475.1  "
      ></polygon>
      <polygon
        points="583.4,1144.1 557.3,1144.1 458.6,1112 437.5,1096.7  "
      ></polygon>
      <polygon points="745,1196.6 737,1202.5 660,1177.5 673,1173.3  "></polygon>
      <polygon points="660,142.5 647,146.8 575,123.4 583.1,117.5  "></polygon>
      <polygon
        points="275.8,275.8 252.4,347.8 241.4,355.9 266.4,278.9  "
      ></polygon>
      <polygon
        points="1044.2,275.8 972.2,252.4 964.2,241.4 1041.1,266.4  "
      ></polygon>
      <polygon
        points="959.2,248.2 907.3,231.3 886.2,216 951.1,237.1  "
      ></polygon>
      <polygon
        points="308.3,175.9 278.9,266.4 269.4,269.4 299.8,175.9  "
      ></polygon>
      <polygon
        points="248.2,360.8 231.3,412.7 216,433.8 237.1,368.9  "
      ></polygon>
      <polygon points="167.8,582.1 167.8,608.1 151,660 146.8,647  "></polygon>
      <polygon
        points="1078.7,964.2 1053.7,1041.1 1044.2,1044.2 1067.6,972.2  "
      ></polygon>
      <polygon
        points="1144.1,299.8 1144.1,308.3 1053.7,278.9 1050.6,269.4  "
      ></polygon>
      <polygon
        points="1104,886.2 1082.9,951.2 1071.8,959.2 1088.7,907.3  "
      ></polygon>
      <polygon
        points="573.6,114.5 565.6,120.3 475.1,90.9 480.1,84.1  "
      ></polygon>
      <polygon
        points="120.3,754.5 90.9,844.9 84.1,839.9 114.4,746.4  "
      ></polygon>
      <polygon
        points="269.4,1050.6 175.9,1020.2 175.9,1011.7 266.4,1041.1  "
      ></polygon>
      <polygon
        points="660,1169 647,1173.3 582.1,1152.2 608.1,1152.2  "
      ></polygon>
      <polygon
        points="355.8,1078.7 278.9,1053.7 275.8,1044.2 347.8,1067.6  "
      ></polygon>
      <polygon
        points="844.9,1229.1 839.9,1236 746.4,1205.6 754.5,1199.7  "
      ></polygon>
      <path
        d="M1258.8,409.7l-20.2,62.3l-6.8-5l19.4-59.8c5-15.5,3.7-32-3.7-46.6c-7.4-14.5-20-25.3-35.5-30.3l-59.8-19.4v-8.5l62.3,20.2   c17.5,5.7,31.8,17.9,40.2,34.3C1263,373.5,1264.5,392.2,1258.8,409.7z"
      ></path>
      <polygon points="738,167.9 711.9,167.9 660,151 673,146.8  "></polygon>
      <polygon points="1173.3,673 1152.1,738 1152.1,711.9 1169,660  "></polygon>
      <polygon
        points="433.8,1104 368.8,1082.9 360.8,1071.8 412.7,1088.7  "
      ></polygon>
      <polygon
        points="1050.6,1050.6 1020.2,1144.1 1011.7,1144.1 1041.1,1053.7  "
      ></polygon>
      <path
        d="M472,81.4l-5,6.9l-59.8-19.4c-6.2-2-12.6-3-18.8-3c-25.7,0-49.7,16.4-58.1,42.2l-19.4,59.8h-8.5l20.2-62.3   c11.8-36.2,50.8-56.1,87-44.3L472,81.4z"
      ></path>
      <polygon
        points="882.5,223.3 736.7,175.9 762.7,175.9 861.5,208  "
      ></polygon>
      <polygon
        points="1202.5,583.1 1177.5,660 1173.3,647 1196.6,575  "
      ></polygon>
      <polygon points="762.8,175.9 738,167.9 712,167.9 736.7,175.9  "></polygon>
      <polygon
        points="175.9,1011.7 167.9,1009.1 167.9,1017.6 175.9,1020.2  "
      ></polygon>
      <polygon
        points="175.9,557.3 167.9,582.1 167.9,608.1 175.9,583.4  "
      ></polygon>
      <polygon
        points="1011.7,1144.1 1009.1,1152.2 1017.6,1152.2 1020.2,1144.1  "
      ></polygon>
      <polygon
        points="557.3,1144.1 582.1,1152.2 608.1,1152.2 583.4,1144.1  "
      ></polygon>
      <polygon
        points="1144.1,762.7 1152.2,738 1152.2,711.9 1144.1,736.7  "
      ></polygon>
      <polygon
        points="1144.1,308.3 1152.2,310.9 1152.2,302.4 1144.1,299.8  "
      ></polygon>
      <polygon
        points="308.3,175.9 310.9,167.9 302.4,167.9 299.8,175.9  "
      ></polygon>
      <polygon points="151,660 146.8,647 142.5,660 146.8,673  "></polygon>
      <polygon
        points="266.4,1041.1 269.4,1050.6 278.9,1053.7 275.8,1044.2  "
      ></polygon>
      <polygon
        points="1053.7,278.9 1050.6,269.4 1041.1,266.4 1044.2,275.8  "
      ></polygon>
      <polygon points="1169,660 1173.3,673 1177.5,660 1173.3,647  "></polygon>
      <polygon points="660,1169 647,1173.3 660,1177.5 673,1173.3  "></polygon>
      <polygon
        points="1041.1,1053.7 1050.6,1050.6 1053.7,1041.1 1044.2,1044.2  "
      ></polygon>
      <polygon points="660,151 673,146.8 660,142.5 647,146.8  "></polygon>
      <polygon
        points="278.9,266.4 269.4,269.4 266.4,278.9 275.8,275.8  "
      ></polygon>
      <polygon
        points="1202.5,583.1 1205.6,573.6 1199.7,565.6 1196.6,575  "
      ></polygon>
      <polygon
        points="360.8,1071.8 347.8,1067.6 355.8,1078.7 368.8,1082.9  "
      ></polygon>
      <polygon
        points="583.1,117.5 573.6,114.5 565.6,120.3 575,123.4  "
      ></polygon>
      <polygon
        points="959.2,248.2 972.2,252.4 964.2,241.4 951.1,237.1  "
      ></polygon>
      <polygon
        points="248.2,360.8 252.4,347.8 241.4,355.9 237.1,368.9  "
      ></polygon>
      <polygon
        points="1071.8,959.2 1067.6,972.2 1078.7,964.2 1082.9,951.2  "
      ></polygon>
      <polygon points="117.5,737 114.5,746.4 120.3,754.5 123.4,745  "></polygon>
      <polygon
        points="737,1202.5 746.4,1205.6 754.5,1199.7 745,1196.6  "
      ></polygon>
      <polygon points="231.3,412.7 216,433.8 208,458.5 223.3,437.5  "></polygon>
      <polygon points="475.1,90.9 480.1,84.1 472,81.5 467,88.3  "></polygon>
      <polygon
        points="844.9,1229.1 839.9,1236 848,1238.6 853,1231.7  "
      ></polygon>
      <polygon
        points="412.7,1088.7 433.8,1104 458.6,1112 437.5,1096.7  "
      ></polygon>
      <polygon points="907.3,231.3 886.2,216 861.5,208 882.5,223.3  "></polygon>
      <polygon
        points="1088.7,907.3 1104,886.2 1112,861.4 1096.7,882.5  "
      ></polygon>
      <polygon
        points="1229.1,475.1 1236,480.1 1238.6,472 1231.7,467.1  "
      ></polygon>
      <polygon points="90.9,844.9 84.1,839.9 81.5,848 88.3,853  "></polygon>
    </g>
  </g>
  <g
    id="SvgjsG2181"
    featurekey="nameFeature-0"
    transform="matrix(6.957663644406042,0,0,6.957663644406042,123.0846743700242,53.48504980092987)"
    fill="#ffffff"
  >
    <path
      d="M2 40 l0 -5.7143 l2.2857 0 l0 -17.143 l-2.2857 0 l0 -5.7143 l12 0 l0 5.7143 l-2.2857 0 l0 17.143 l2.2857 0 l0 5.7143 l-12 0 z"
    ></path>
  </g>
</svg>
